<?xml version="1.0" encoding="UTF-8"?>
<svg id="Little_Sun" data-name="Little Sun" xmlns="http://www.w3.org/2000/svg" viewBox="0 0 500 105">
  <defs>
    <style>
      .cls-1 {
        fill: #ffdd02;
      }
    </style>
  </defs>
  <g id="Logo">
    <g id="Text">
      <g>
        <path class="cls-1" d="M134.33,34.84c0-1.66.54-2.85,1.62-3.57,1.08-.72,2.51-1.08,4.29-1.08s3.11.36,4.16,1.08c1.05.72,1.58,1.91,1.58,3.57v43.58h24.15c1.28,0,2.25.46,2.91,1.37.67.92,1,2.12,1,3.61s-.33,2.63-1,3.57c-.67.94-1.83,1.41-3.5,1.41h-31.4c-1.17,0-2.1-.32-2.79-.95s-1.04-1.76-1.04-3.36v-49.23Z"/>
        <path class="cls-1" d="M187.46,28.19c1.61,0,3.09.5,4.46,1.5,1.36,1,2.04,2.55,2.04,4.65,0,1.88-.6,3.38-1.79,4.48-1.19,1.11-2.76,1.66-4.71,1.66s-3.51-.55-4.71-1.66c-1.2-1.1-1.79-2.6-1.79-4.48,0-1.77.59-3.24,1.79-4.4,1.19-1.16,2.76-1.74,4.71-1.74ZM187.46,88.96c-3.94,0-5.91-1.5-5.91-4.48v-34.12c0-1.6.47-2.88,1.42-3.82s2.47-1.41,4.58-1.41c1.78,0,3.15.39,4.12,1.16.97.78,1.46,1.97,1.46,3.57v34.45c0,1.66-.5,2.85-1.5,3.57-1,.72-2.39,1.08-4.16,1.08Z"/>
        <path class="cls-1" d="M217.94,89.79c-3.66,0-6.58-.98-8.74-2.95-2.17-1.97-3.25-5.02-3.25-9.18v-23.49h-3.58c-.95,0-1.64-.5-2.08-1.5-.44-.99-.67-1.96-.67-2.9,0-1,.21-1.92.63-2.78.42-.86,1.09-1.29,2.04-1.29h3.66v-7.89c0-.99.24-1.84.71-2.53.47-.69,1.08-1.25,1.83-1.66s1.55-.72,2.41-.91c.86-.19,1.71-.29,2.54-.29,1.44,0,2.46.35,3.04,1.04.58.69.88,1.56.88,2.62v9.63h6.83c1.11,0,1.89.4,2.33,1.2s.66,1.76.66,2.86c0,2.93-1.03,4.4-3.08,4.4h-6.75v22.16c0,1.27.23,2.17.71,2.7.47.53,1.21.79,2.21.79.67,0,1.25-.1,1.75-.29.5-.19.97-.37,1.42-.54l1.33-.58c.44-.22.94-.33,1.5-.33,1.44,0,2.47.55,3.08,1.66.61,1.11.92,2.3.92,3.57,0,.89-.16,1.68-.46,2.37-.31.69-.85,1.29-1.63,1.79-1.11.72-2.51,1.29-4.2,1.7-1.69.41-3.71.62-6.04.62Z"/>
        <path class="cls-1" d="M250.26,89.79c-3.67,0-6.58-.98-8.75-2.95-2.16-1.97-3.25-5.02-3.25-9.18v-23.49h-3.58c-.94,0-1.64-.5-2.08-1.5-.45-.99-.67-1.96-.67-2.9,0-1,.21-1.92.62-2.78.42-.86,1.1-1.29,2.04-1.29h3.66v-7.89c0-.99.23-1.84.71-2.53.47-.69,1.08-1.25,1.83-1.66.75-.41,1.55-.72,2.42-.91.86-.19,1.71-.29,2.54-.29,1.44,0,2.46.35,3.04,1.04.58.69.87,1.56.87,2.62v9.63h6.83c1.11,0,1.89.4,2.33,1.2.45.8.67,1.76.67,2.86,0,2.93-1.03,4.4-3.08,4.4h-6.74v22.16c0,1.27.23,2.17.71,2.7.47.53,1.21.79,2.21.79.67,0,1.25-.1,1.75-.29.5-.19.97-.37,1.42-.54l1.33-.58c.44-.22.94-.33,1.5-.33,1.44,0,2.47.55,3.08,1.66s.92,2.3.92,3.57c0,.89-.15,1.68-.46,2.37-.3.69-.85,1.29-1.62,1.79-1.11.72-2.51,1.29-4.21,1.7-1.69.41-3.71.62-6.04.62Z"/>
        <path class="cls-1" d="M275.74,88.96c-3.94,0-5.91-1.5-5.91-4.48v-49.48c0-3.21,2-4.81,6-4.81,1.44,0,2.74.35,3.87,1.04,1.14.69,1.7,1.84,1.7,3.45v49.64c0,1.66-.5,2.85-1.5,3.57s-2.39,1.08-4.17,1.08Z"/>
        <path class="cls-1" d="M312.97,44.3c6.05,0,10.87,1.87,14.45,5.6s5.37,9.09,5.37,16.06c0,1.61-.48,2.71-1.46,3.32-.97.61-2.35.91-4.12.91h-24.15c.55,6.81,4.25,10.21,11.08,10.21,1.78,0,3.27-.29,4.5-.87,1.22-.58,2.28-1.09,3.17-1.53.83-.44,1.61-.89,2.33-1.33.72-.44,1.58-.67,2.58-.67,1.11,0,2.14.56,3.08,1.66.94,1.11,1.42,2.35,1.42,3.74,0,.99-.29,1.87-.87,2.61-.58.75-1.54,1.54-2.87,2.37-1.78,1.11-3.9,1.95-6.37,2.53-2.47.58-4.9.87-7.29.87-3.44,0-6.56-.44-9.37-1.33-2.8-.89-5.18-2.24-7.12-4.07s-3.44-4.14-4.5-6.93c-1.05-2.79-1.58-6.1-1.58-9.92,0-2.93.42-5.79,1.25-8.59.83-2.8,2.14-5.27,3.91-7.43s4.04-3.9,6.79-5.23c2.75-1.33,6.01-1.99,9.79-1.99ZM321.21,61.65c0-.99-.17-1.99-.5-2.99-.33-1-.85-1.91-1.54-2.74-.7-.83-1.57-1.5-2.62-1.99s-2.33-.75-3.83-.75c-2.39,0-4.46.72-6.21,2.16-1.75,1.44-2.76,3.54-3.04,6.31h17.74Z"/>
      </g>
      <g>
        <path class="cls-1" d="M387.24,54.26c2.16.44,4.33,1.04,6.49,1.78s4.12,1.77,5.87,3.07c1.75,1.3,3.18,2.96,4.29,4.98s1.67,4.52,1.67,7.51c0,3.27-.6,6.05-1.79,8.34-1.2,2.3-2.82,4.18-4.87,5.64s-4.47,2.53-7.24,3.19c-2.78.66-5.75,1-8.91,1-4.33,0-7.98-.46-10.95-1.37s-5.37-1.92-7.21-3.03c-1.44-.89-2.37-1.77-2.79-2.66s-.62-1.71-.62-2.49c0-1.27.33-2.46,1-3.57.5-.83,1.15-1.52,1.95-2.08.8-.55,1.68-.86,2.62-.91.94,0,1.78.2,2.5.58.72.39,1.55.89,2.5,1.5.72.5,1.47.98,2.25,1.45.77.47,1.65.89,2.62,1.25.97.36,2.07.66,3.29.91,1.22.25,2.64.38,4.25.38,3.16,0,5.56-.54,7.2-1.62,1.64-1.08,2.46-2.78,2.46-5.1s-.81-4.07-2.42-5.23c-1.61-1.16-4.08-2.04-7.41-2.65l-4.41-.83c-2.33-.44-4.58-1.07-6.75-1.87-2.16-.8-4.08-1.87-5.74-3.19-1.67-1.33-3-2.98-4-4.94-1-1.96-1.5-4.36-1.5-7.18,0-2.55.48-4.91,1.46-7.1.97-2.19,2.42-4.07,4.33-5.64,1.91-1.58,4.27-2.81,7.08-3.69,2.8-.89,6.04-1.33,9.7-1.33,2.44,0,4.87.25,7.29.75s4.58,1.19,6.49,2.07c1.92.89,3.49,1.94,4.71,3.16s1.83,2.57,1.83,4.07c0,.89-.22,1.77-.67,2.65-.39.78-.96,1.45-1.71,2.04-.75.58-1.62.9-2.62.95-.89,0-1.65-.13-2.29-.38-.64-.25-1.32-.68-2.04-1.29-1.33-1.05-2.87-1.99-4.62-2.82-1.75-.83-4.12-1.25-7.12-1.25-1.83,0-3.37.2-4.62.58-1.25.39-2.25.9-3,1.53s-1.28,1.38-1.58,2.24c-.31.86-.46,1.73-.46,2.61,0,1,.23,1.88.71,2.66.47.78,1.11,1.44,1.92,1.99.8.55,1.73,1.02,2.79,1.41,1.05.39,2.19.69,3.41.91l4.67,1Z"/>
        <path class="cls-1" d="M426.8,89.79c-5.22,0-9.22-1.71-11.99-5.15-1.45-1.88-2.3-4-2.58-6.35-.28-2.35-.42-4.55-.42-6.6v-22c0-1.6.47-2.77,1.42-3.49.94-.72,2.39-1.08,4.33-1.08,1.67,0,3.04.35,4.12,1.04,1.08.69,1.62,1.87,1.62,3.53v22c0,1.16.05,2.2.17,3.11.11.91.3,1.65.58,2.2.5,1.11,1.26,1.88,2.29,2.32,1.03.44,2.26.67,3.71.67s2.77-.24,3.83-.71c1.05-.47,1.94-1.05,2.67-1.74.72-.69,1.28-1.42,1.67-2.2.39-.77.67-1.49.83-2.16.28-.99.43-2.13.46-3.4.03-1.27.04-2.35.04-3.24v-16.6c0-1.71.46-2.95,1.38-3.69.92-.75,2.43-1.12,4.54-1.12,1.72,0,3.08.36,4.08,1.08s1.5,1.91,1.5,3.57v34.12c0,1.5-.43,2.71-1.29,3.65-.86.94-2.35,1.41-4.46,1.41-1.44,0-2.72-.32-3.83-.95-1.11-.64-1.67-1.92-1.67-3.86v-.75c-1.05,1.61-2.64,3.07-4.75,4.4-2.11,1.33-4.86,1.99-8.24,1.99Z"/>
        <path class="cls-1" d="M483.84,44.3c2.89,0,5.29.46,7.21,1.37,1.92.91,3.57,2.23,4.95,3.94,1.45,1.88,2.31,3.97,2.58,6.27s.42,4.47.42,6.52v22c0,1.61-.47,2.77-1.42,3.49s-2.39,1.08-4.33,1.08c-1.66,0-3.04-.35-4.12-1.04s-1.63-1.87-1.63-3.53v-21.75c0-2.44-.25-4.2-.75-5.31s-1.27-1.88-2.29-2.32c-1.03-.44-2.27-.67-3.71-.67s-2.78.24-3.83.71c-1.06.47-1.95,1.05-2.67,1.74-.72.69-1.28,1.43-1.66,2.2-.39.77-.67,1.49-.83,2.16-.28,1-.43,2.13-.46,3.4-.03,1.27-.04,2.35-.04,3.24v16.35c0,1.71-.46,2.95-1.37,3.69-.92.75-2.43,1.12-4.54,1.12-1.72,0-3.08-.36-4.08-1.08s-1.5-1.91-1.5-3.57v-34.28c0-1.5.43-2.71,1.29-3.65.86-.94,2.34-1.41,4.46-1.41,1.44,0,2.72.32,3.83.95,1.11.64,1.66,1.92,1.66,3.86v.99c1.17-1.71,2.84-3.22,5.04-4.52,2.19-1.3,4.78-1.95,7.78-1.95Z"/>
      </g>
    </g>
    <g id="Icon">
      <path class="cls-1" d="M52.67,70.91c5.61,0,10.18-4.56,10.18-10.16s-4.57-10.15-10.18-10.15-10.18,4.55-10.18,10.15,4.57,10.16,10.18,10.16Z"/>
      <path class="cls-1" d="M55.02,1v39.16c0,1.29-1.05,2.34-2.35,2.34s-2.35-1.05-2.35-2.34V1C22.88,2.23,1,24.76,1,52.44s23.13,51.56,51.67,51.56,51.67-23.08,51.67-51.56S82.45,2.23,55.02,1ZM80.71,44.62c.65,1.12.26,2.55-.86,3.2l-8.13,4.69c-.37.21-.77.31-1.17.31-.81,0-1.6-.42-2.04-1.17-.65-1.12-.26-2.55.86-3.2l8.13-4.69c1.12-.65,2.56-.27,3.21.86ZM61.05,41.78l4.77-8.07c.66-1.11,2.1-1.48,3.22-.83,1.12.66,1.49,2.09.83,3.21l-4.77,8.07c-.44.74-1.22,1.15-2.02,1.15-.41,0-.82-.1-1.19-.32-1.12-.66-1.49-2.09-.83-3.21ZM52.67,45.91c8.2,0,14.87,6.66,14.87,14.84s-6.67,14.84-14.87,14.84-14.87-6.66-14.87-14.84,6.67-14.84,14.87-14.84ZM36.3,32.88c1.12-.66,2.56-.29,3.22.83l4.77,8.07c.66,1.12.29,2.55-.83,3.21-.37.22-.79.32-1.19.32-.8,0-1.59-.41-2.02-1.15l-4.77-8.07c-.66-1.12-.29-2.55.83-3.21ZM24.62,44.62c.65-1.12,2.09-1.5,3.21-.86l8.13,4.69c1.12.65,1.51,2.08.86,3.2-.43.75-1.22,1.17-2.04,1.17-.4,0-.8-.1-1.17-.31l-8.13-4.69c-1.12-.65-1.51-2.08-.86-3.2ZM20.3,60.77c0-1.29,1.05-2.34,2.35-2.34h9.39c1.3,0,2.35,1.05,2.35,2.34s-1.05,2.34-2.35,2.34h-9.39c-1.3,0-2.35-1.05-2.35-2.34ZM26.61,77.96c-.81,0-1.6-.42-2.04-1.17-.65-1.12-.26-2.55.86-3.2l8.13-4.68c1.12-.65,2.56-.26,3.21.86.65,1.12.26,2.55-.86,3.2l-8.13,4.68c-.37.21-.77.31-1.17.31ZM44.15,79.64l-4.77,8.07c-.44.74-1.22,1.15-2.02,1.15-.41,0-.82-.1-1.19-.32-1.12-.66-1.49-2.09-.83-3.21l4.77-8.07c.66-1.11,2.1-1.48,3.22-.83,1.12.66,1.49,2.09.83,3.21ZM55.02,90.72c0,1.29-1.05,2.34-2.35,2.34s-2.35-1.05-2.35-2.34v-9.37c0-1.29,1.05-2.34,2.35-2.34s2.35,1.05,2.35,2.34v9.37ZM69.17,88.54c-.37.22-.79.32-1.19.32-.8,0-1.59-.41-2.02-1.15l-4.77-8.07c-.66-1.12-.29-2.55.83-3.21,1.12-.65,2.56-.28,3.22.83l4.77,8.07c.66,1.12.29,2.55-.83,3.21ZM80.76,76.79c-.43.75-1.22,1.17-2.04,1.17-.4,0-.8-.1-1.17-.31l-8.13-4.68c-1.12-.65-1.51-2.08-.86-3.2.65-1.12,2.09-1.51,3.21-.86l8.13,4.68c1.12.65,1.51,2.08.86,3.2ZM82.69,63.11h-9.39c-1.3,0-2.35-1.05-2.35-2.34s1.05-2.34,2.35-2.34h9.39c1.3,0,2.35,1.05,2.35,2.34s-1.05,2.34-2.35,2.34Z"/>
    </g>
  </g>
</svg>