<?xml version="1.0" encoding="UTF-8"?>
<svg id="Layer_1" data-name="Layer 1" xmlns="http://www.w3.org/2000/svg" viewBox="0 0 650 650">
  <defs>
    <style>
      .cls-1 {
        fill: #ffdd02;
      }
    </style>
  </defs>
  <path class="cls-1" d="M549.25,82.88h-30.87v-50.38c0-17.95-14.55-32.5-32.5-32.5s-32.5,14.55-32.5,32.5v50.38H196.63v-50.38c0-17.95-14.55-32.5-32.5-32.5s-32.5,14.55-32.5,32.5v50.38h-30.87C45.2,82.88,0,128.07,0,183.62v365.63c0,55.55,45.2,100.75,100.75,100.75h448.5c55.55,0,100.75-45.2,100.75-100.75V183.62c0-55.55-45.2-100.75-100.75-100.75ZM100.75,147.87h448.5c19.71,0,35.75,16.04,35.75,35.75v60.13H65v-60.13c0-19.71,16.04-35.75,35.75-35.75ZM549.25,585H100.75c-19.71,0-35.75-16.04-35.75-35.75v-240.5h520v240.5c0,19.71-16.04,35.75-35.75,35.75Z"/>
</svg>