<?xml version="1.0" encoding="UTF-8"?>
<svg id="Layer_1" data-name="Layer 1" xmlns="http://www.w3.org/2000/svg" viewBox="0 0 631.7 681.21">
  <defs>
    <style>
      .cls-1 {
        stroke-width: 0px;
        fill: #FACC15;
      }
    </style>
  </defs>
  <g>
    <rect class="cls-1" x="420.42" y="348.6" width="70" height="70" rx="17.5" ry="17.5"/>
    <path class="cls-1" d="M472.92,488.58h-35c-9.66,0-17.5,7.84-17.5,17.5v35c0,9.68,7.84,17.5,17.5,17.5h35c9.66,0,17.5-7.83,17.5-17.5v-35c0-9.66-7.84-17.5-17.5-17.5Z"/>
    <rect class="cls-1" x="280.43" y="488.58" width="70" height="70" rx="17.5" ry="17.5"/>
    <rect class="cls-1" x="280.43" y="348.6" width="70" height="70" rx="17.5" ry="17.5"/>
    <rect class="cls-1" x="140.43" y="348.6" width="70" height="70" rx="17.5" ry="17.5"/>
    <rect class="cls-1" x="140.43" y="488.58" width="70" height="70" rx="17.5" ry="17.5"/>
    <rect class="cls-1" x="420.06" y="204.94" width="70" height="70" rx="17.5" ry="17.5"/>
    <rect class="cls-1" x="280.07" y="204.94" width="70" height="70" rx="17.5" ry="17.5"/>
    <rect class="cls-1" x="140.08" y="204.94" width="70" height="70" rx="17.5" ry="17.5"/>
  </g>
  <path class="cls-1" d="M530.06,49.51h-66.68v-21.65c0-15.39-12.47-27.86-27.86-27.86h-13.46c-15.39,0-27.86,12.47-27.86,27.86v21.65h-160.64v-21.65c0-15.39-12.47-27.86-27.86-27.86h-13.46c-15.39,0-27.86,12.47-27.86,27.86v21.65h-62.75C45.6,49.51,0,95.11,0,151.15v428.43c0,56.04,45.59,101.64,101.64,101.64h428.43c56.04,0,101.64-45.59,101.64-101.64V151.15c0-56.04-45.59-101.64-101.64-101.64ZM568.53,579.58c0,21.21-17.26,38.47-38.47,38.47H101.64c-21.21,0-38.47-17.26-38.47-38.47V151.15c0-21.21,17.26-38.47,38.47-38.47h62.75v10.9c0,15.39,12.47,27.86,27.86,27.86h13.46c15.39,0,27.86-12.47,27.86-27.86v-10.9h160.64v10.9c0,15.39,12.47,27.86,27.86,27.86h13.46c15.39,0,27.86-12.47,27.86-27.86v-10.9h66.68c21.21,0,38.47,17.26,38.47,38.47v428.43Z"/>
</svg>