<?xml version="1.0" encoding="UTF-8"?>
<svg id="Layer_1" data-name="Layer 1" xmlns="http://www.w3.org/2000/svg" viewBox="0 0 650 650">
  <defs>
    <style>
      .cls-1 {
        fill: #ffdd02;
      }
    </style>
  </defs>
  <path class="cls-1" d="M549.25,0H100.75C45.2,0,0,45.2,0,100.75v448.5c0,55.55,45.2,100.75,100.75,100.75h448.5c55.55,0,100.75-45.2,100.75-100.75V100.75c0-55.55-45.2-100.75-100.75-100.75ZM100.75,65h448.5c19.71,0,35.75,16.04,35.75,35.75v94.25H65v-94.25c0-19.71,16.04-35.75,35.75-35.75ZM65,549.25v-289.25h130v325h-94.25c-19.71,0-35.75-16.04-35.75-35.75ZM549.25,585h-289.25v-325h325v289.25c0,19.71-16.04,35.75-35.75,35.75Z"/>
</svg>