<?xml version="1.0" encoding="UTF-8"?>
<svg id="Layer_1" data-name="Layer 1" xmlns="http://www.w3.org/2000/svg" viewBox="0 0 650 650">
  <defs>
    <style>
      .cls-1 {
        fill: #ffdd02;
      }
    </style>
  </defs>
  <path class="cls-1" d="M183.95,254.06c13.92,0,27.32-2.26,39.87-6.42,24.66,28.18,60.88,46.01,101.19,46.01s76.52-17.83,101.19-46.01c12.54,4.16,25.95,6.42,39.87,6.42,70.04,0,127.03-56.99,127.03-127.03S536.1,0,466.05,0c-34.18,0-65.24,13.58-88.1,35.62-16.26-6.99-34.16-10.87-52.95-10.87s-36.69,3.88-52.95,10.87C249.19,13.58,218.13,0,183.95,0,113.9,0,56.91,56.99,56.91,127.03s56.99,127.03,127.03,127.03ZM536.99,127.03c0,39.12-31.82,70.94-70.94,70.94-4.09,0-8.1-.36-12-1.03,3.51-11.98,5.4-24.64,5.4-37.74,0-34.53-13.09-66.06-34.56-89.9,11.61-8.31,25.82-13.21,41.16-13.21,39.12,0,70.94,31.82,70.94,70.94ZM403.36,159.2c0,43.21-35.15,78.36-78.36,78.36s-78.36-35.15-78.36-78.36,35.15-78.36,78.36-78.36,78.36,35.15,78.36,78.36ZM183.95,56.09c15.34,0,29.55,4.9,41.16,13.21-21.47,23.84-34.56,55.37-34.56,89.9,0,13.1,1.89,25.76,5.4,37.74-3.9.67-7.91,1.03-12,1.03-39.12,0-70.94-31.82-70.94-70.94s31.82-70.94,70.94-70.94Z" />
  <path class="cls-1" d="M649.45,505.82c-4.33-32.91-14.95-80.64-40.89-121.07-32.7-50.96-81.98-77.9-142.5-77.9-45.84,0-85.21,15.47-115.83,45.11-8.21-.86-16.62-1.32-25.23-1.32s-17.01.46-25.23,1.32c-30.62-29.64-69.99-45.11-115.83-45.11-60.53,0-109.8,26.94-142.5,77.9C15.5,425.19,4.89,472.91.55,505.82c-2.33,17.7,2.77,35.19,13.99,47.98,10.22,11.66,24.76,18.35,39.87,18.35h53.47c-.29,1.93-.57,3.84-.83,5.7-2.62,18.92,2.81,37.73,14.9,51.61,11.37,13.06,27.68,20.55,44.74,20.55h316.62c17.06,0,33.36-7.49,44.74-20.55,12.09-13.87,17.52-32.68,14.9-51.61-.26-1.85-.54-3.76-.83-5.7h53.47c15.12,0,29.65-6.69,39.87-18.35,11.22-12.8,16.32-30.29,13.99-47.98ZM120.52,516.06H56.35c-.2-.62-.35-1.59-.18-2.92,3.59-27.25,12.13-66.38,32.48-98.1,22.5-35.06,53.67-52.1,95.3-52.1,17.3,0,32.78,2.96,46.59,8.92-2.83,1.43-5.64,2.91-8.39,4.49-25.66,14.69-47.77,35.63-65.71,62.24-16.65,24.69-28.08,51.8-35.91,77.47ZM485.75,592.61c-.75.86-1.57,1.3-2.44,1.3H166.69c-.87,0-1.69-.44-2.44-1.3-.68-.78-2.19-3.02-1.63-7.07,4.43-32.04,15.02-78.1,40.31-115.59,28.69-42.54,68.62-63.22,122.07-63.22s93.38,20.68,122.07,63.22c25.28,37.49,35.88,83.55,40.31,115.59.56,4.05-.95,6.3-1.63,7.07ZM593.66,516.06h-64.17c-7.83-25.67-19.26-52.78-35.91-77.47-17.95-26.61-40.06-47.55-65.71-62.24-2.75-1.58-5.56-3.05-8.39-4.49,13.81-5.96,29.29-8.92,46.59-8.92,41.63,0,72.8,17.04,95.29,52.1,20.35,31.72,28.9,70.85,32.49,98.1.17,1.32.02,2.29-.18,2.91Z" />
</svg>