<?xml version="1.0" encoding="UTF-8"?>
<svg id="Layer_1" data-name="Layer 1" xmlns="http://www.w3.org/2000/svg" viewBox="0 0 650 650">
  <defs>
    <style>
      .cls-1 {
        fill: #ffdd02;
      }
    </style>
  </defs>
  <path class="cls-1" d="M491.35,254.7h-155.39c-12.26,0-22.2-9.94-22.2-22.2s9.94-22.2,22.2-22.2h155.39c12.26,0,22.2,9.94,22.2,22.2s-9.94,22.2-22.2,22.2Z" />
  <path class="cls-1" d="M180.85,276.9c-5.68,0-11.36-2.17-15.7-6.5l-22.2-22.2c-8.67-8.67-8.67-22.73,0-31.39,8.67-8.67,22.73-8.67,31.39,0l6.5,6.5,50.9-50.9c8.67-8.67,22.72-8.67,31.39,0,8.67,8.67,8.67,22.73,0,31.39l-66.6,66.6c-4.34,4.34-10.02,6.5-15.7,6.5Z" />
  <path class="cls-1" d="M491.35,461.9h-155.39c-12.26,0-22.2-9.94-22.2-22.2s9.94-22.2,22.2-22.2h155.39c12.26,0,22.2,9.94,22.2,22.2s-9.94,22.2-22.2,22.2Z" />
  <path class="cls-1" d="M180.85,484.09c-5.68,0-11.36-2.17-15.7-6.5l-22.2-22.2c-8.67-8.67-8.67-22.73,0-31.39,8.67-8.67,22.73-8.67,31.39,0l6.5,6.5,50.9-50.9c8.67-8.67,22.72-8.67,31.39,0s8.67,22.73,0,31.39l-66.6,66.6c-4.34,4.34-10.02,6.5-15.7,6.5Z" />
  <path class="cls-1" d="M545.42,650H104.58c-57.67,0-104.58-46.92-104.58-104.58V104.58C0,46.92,46.92,0,104.58,0h440.84c57.67,0,104.58,46.92,104.58,104.58v440.84c0,57.67-46.92,104.58-104.58,104.58ZM104.58,65c-21.82,0-39.58,17.76-39.58,39.58v440.84c0,21.82,17.76,39.58,39.58,39.58h440.84c21.82,0,39.58-17.76,39.58-39.58V104.58c0-21.82-17.76-39.58-39.58-39.58H104.58Z" />
</svg>